<?xml version="1.0" encoding="UTF-8" standalone="no"?>
<svg
   xmlns:dc="http://purl.org/dc/elements/1.1/"
   xmlns:cc="http://creativecommons.org/ns#"
   xmlns:rdf="http://www.w3.org/1999/02/22-rdf-syntax-ns#"
   xmlns:svg="http://www.w3.org/2000/svg"
   xmlns="http://www.w3.org/2000/svg"
   xmlns:sodipodi="http://sodipodi.sourceforge.net/DTD/sodipodi-0.dtd"
   xmlns:inkscape="http://www.inkscape.org/namespaces/inkscape"
   width="210mm"
   height="297mm"
   viewBox="0 0 210 297"
   version="1.1"
   id="svg30"
   inkscape:version="1.0.2-2 (e86c870879, 2021-01-15)"
   sodipodi:docname="overlappingHole.svg">
  <defs
     id="defs24" />
  <sodipodi:namedview
     id="base"
     pagecolor="#ffffff"
     bordercolor="#666666"
     borderopacity="1.0"
     inkscape:pageopacity="0.0"
     inkscape:pageshadow="2"
     inkscape:zoom="0.49497475"
     inkscape:cx="489.61408"
     inkscape:cy="486.70986"
     inkscape:document-units="mm"
     inkscape:current-layer="layer1"
     inkscape:document-rotation="0"
     showgrid="false"
     inkscape:window-width="1431"
     inkscape:window-height="1020"
     inkscape:window-x="312"
     inkscape:window-y="72"
     inkscape:window-maximized="0" />
  <metadata
     id="metadata27">
    <rdf:RDF>
      <cc:Work
         rdf:about="">
        <dc:format>image/svg+xml</dc:format>
        <dc:type
           rdf:resource="http://purl.org/dc/dcmitype/StillImage" />
        <dc:title></dc:title>
      </cc:Work>
    </rdf:RDF>
  </metadata>
  <g
     inkscape:label="Layer 1"
     inkscape:groupmode="layer"
     id="layer1">
    <rect
       style="fill-rule:evenodd;stroke-width:0.264583"
       id="rect148"
       width="71.673332"
       height="119.06854"
       x="-28.288183"
       y="101.10622"
       transform="rotate(-48.153276)" />
    <path
       id="path32"
       style="fill:#ff0000;fill-rule:evenodd;stroke-width:0.181851"
       d="M 92.376169,89.780489 A 51.697578,50.918219 0 0 0 40.678691,140.69871 51.697578,50.918219 0 0 0 92.376169,191.61692 51.697578,50.918219 0 0 0 144.074,140.69871 51.697578,50.918219 0 0 0 92.376169,89.780489 Z m 8.791711,24.840031 c 0.42792,0.48788 0.80317,1.03244 1.22003,1.53223 0.0568,0.0111 0.10779,0.0231 0.14846,0.0352 0.10317,0.0307 0.19433,0.0614 0.28947,0.092 0.0862,0.005 0.17243,0.009 0.25892,0.01 -0.085,-0.1564 -0.16927,-0.30047 -0.23015,-0.39354 -0.12854,-0.1965 -0.78445,-0.51251 -0.57397,-0.40845 0.29751,0.14709 0.65708,0.25991 0.83751,0.53845 0.0557,0.0859 0.10628,0.1747 0.15486,0.26461 0.22698,-0.003 0.45433,-0.0113 0.68087,-0.0128 1.2003,-1.8e-4 1.2363,0.0588 2.42551,1.80146 0.17564,0.0953 0.34981,0.19261 0.51856,0.29693 0.0182,0.0644 0.048,0.14592 0.0821,0.23406 0.21167,0.14509 0.4095,0.30599 0.57929,0.49902 0.0941,0.10704 0.18338,0.30918 0.25573,0.52602 0.10797,0.0397 0.17561,0.0431 0.21452,0.0295 0.006,-0.19411 0.10835,-0.0379 0,0 -6.9e-4,0.0297 0.001,0.0691 0.006,0.11686 0.0288,0.003 0.0576,0.004 0.0863,0.009 0.69397,0.10522 1.0036,0.1986 1.29036,0.36371 -0.70854,-0.76936 -0.90947,-1.3493 0.34949,-1.34756 0.12872,1.8e-4 0.27273,0.006 0.43296,0.0192 0.68843,0.0548 1.37693,0.10931 2.06536,0.16409 0.13537,0.27352 0.26203,0.55208 0.38714,0.83148 0.0245,-1.3e-4 0.0491,0.001 0.0735,6.9e-4 3.02781,3.60179 2.0112,1.88444 2.27243,3.45658 0.0184,0.23375 0.035,1.1011 -0.039,1.68638 0.18934,0.37394 0.35433,0.76207 0.51571,1.1522 0.34424,0.0837 0.67934,0.21097 1.0215,0.30474 0.0955,0.15081 0.18494,0.30637 0.27277,0.46315 1.90152,1.38199 1.889,1.35159 1.84337,2.58178 -0.003,0.11408 0.041,0.44112 -0.0156,0.34204 -0.0214,-0.0376 -0.0421,-0.16741 -0.038,-0.12431 0.0489,0.48472 0.22209,0.95032 0.12537,1.45019 -0.0692,0.40173 -0.0798,0.49169 -0.0973,0.60486 0.22066,0.16874 0.4983,0.28397 0.64607,0.51714 0.761,1.20086 1.19513,1.98859 0.86521,3.23602 0.55109,0.87746 0.57688,1.29606 0.54982,0.51323 -0.0222,-0.0926 -0.0406,-0.17664 -0.0515,-0.24542 -0.008,-0.0526 0.0326,0.10162 0.049,0.15237 10e-4,0.0439 10e-4,0.0551 0.003,0.0931 0.14538,0.60576 0.47235,1.63267 0.1989,1.94815 -0.48395,0.55835 -0.86685,1.00304 -1.18522,1.35464 -0.003,0.19485 -0.005,0.3923 -0.003,0.61091 0.0239,2.19771 -0.92193,3.45312 -2.01244,3.7727 -0.007,0.41835 -0.0238,0.79686 -0.0256,0.87515 -0.0756,1.01364 -0.0464,2.02615 -0.0366,3.04032 6.9e-4,1.41615 -0.005,2.83249 -0.004,4.24863 0.002,1.09158 5.5e-4,2.18315 3.7e-4,3.27473 0.0942,1.65867 -0.18391,2.73953 -1.28965,3.7038 -0.10341,0.74208 -0.29525,1.63748 -0.8915,2.01243 -0.54877,0.3451 -1.19055,0.49965 -1.8185,0.68265 -0.13687,0.0878 -0.27745,0.16852 -0.4216,0.24258 0.18014,0.002 -1.71109,1.05297 -1.73113,1.06554 -0.24897,0.15641 0.0173,-3.7e-4 -0.11188,0.1957 -0.0151,0.0237 -0.0212,0.0573 -0.0454,0.0714 -0.55776,0.32303 -1.07999,0.7347 -1.67112,0.98348 0.0184,0.003 0.0375,0.005 0.0558,0.009 0.11621,0.0219 -0.14163,0.19557 -0.2401,0.26107 -0.50969,0.33907 -1.04943,0.63088 -1.57415,0.94619 -0.34033,0.1347 -0.66611,0.3148 -1.02114,0.40383 -0.43005,0.10786 -0.88025,0.25686 -1.31735,0.18257 -0.4288,-0.0729 -0.83741,-0.46755 -1.23708,-0.66987 -0.25387,0.0669 -0.5173,0.0509 -0.78281,0.0177 -0.003,0.007 -0.005,0.0134 -0.005,0.0199 0.052,0.0129 0.10361,0.0277 0.15379,0.0472 0.0318,0.0124 0.006,0.0301 -0.0341,0.0476 0.3582,0.14701 1.43424,0.27071 1.75599,0.60842 0.17272,0.18128 -0.42711,0.26673 -0.66027,0.35802 -0.46468,0.18194 -0.95027,0.30568 -1.42533,0.45853 -0.34211,0.0401 -0.6863,0.0662 -1.02646,0.1204 -0.29807,0.0475 -0.57577,0.19707 -0.87587,0.22945 -1.553051,0.16759 -3.050576,0.1509 -4.604159,0.10087 -1.531175,-0.0962 -3.066949,-0.037 -4.599905,-0.027 -0.528672,-0.088 -1.131436,0.11799 -1.650506,-0.006 -0.790262,-0.18883 -1.56374,-0.44236 -2.34559,-0.66347 0.471378,-0.31787 0.543889,-0.48295 0.39886,-0.56367 -0.867413,0.4856 -1.642252,0.60976 -2.330668,0.20175 -0.421205,0.008 -0.900885,-0.002 -1.083648,-0.005 -0.572653,-0.0188 -1.145251,-0.009 -1.717993,-0.007 -0.728322,-6.9e-4 -1.456726,-0.002 -2.185055,-0.001 -1.051914,0.0631 -2.48134,-0.3908 -3.069795,-1.29745 -0.402846,0.0606 -0.849254,0.0388 -1.339017,-0.0884 -0.897744,-0.2331 -1.618484,-1.13751 -2.213821,-1.91014 -0.159007,-0.10787 -0.269074,-0.22673 -0.272065,-0.35056 0.08488,0.1086 0.181068,0.23244 0.272065,0.35056 0.557053,0.37785 1.750602,0.61077 1.361041,0.36228 -0.803142,-0.51229 -1.775918,-0.70602 -2.605937,-1.17351 -0.316701,-0.17837 -0.599833,-0.43515 -0.854201,-0.73485 -1.111654,-0.38397 -1.712305,-0.83783 -0.819039,-1.25129 -0.191812,-0.35969 -0.361753,-0.71888 -0.507904,-1.04067 -0.701698,-0.25156 -0.892058,-1.14655 -1.291069,-1.6974 -0.129762,-0.17914 -0.344404,-0.27874 -0.504353,-0.43154 -1.254384,0.35804 -1.928644,-1.47778 -2.337066,-2.95685 -0.734404,-0.28229 -1.145247,-0.7041 -0.565441,-1.24312 -0.816563,-0.20284 -1.42826,-0.48641 -0.804123,-0.74623 -0.139652,-0.0816 -0.271185,-0.1765 -0.388564,-0.29408 -0.704037,-0.70525 -0.311987,-1.94922 -0.109039,-2.81123 -0.139374,0.61935 -0.103448,-0.9626 -0.103,-1.00444 0.01498,-0.50496 0.01,-1.01012 0.0075,-1.51519 -7.56e-4,-0.52376 8.93e-4,-1.04755 7.56e-4,-1.5713 -1.55e-4,-0.69303 -3.64e-4,-1.38619 -3.64e-4,-2.07921 2e-6,-1.21493 -2e-6,-2.42988 0,-3.64483 2e-6,-0.4871 0,-0.9741 0,-1.4612 0.0065,-1.51271 -0.244494,-2.91281 0.816197,-4.0405 0.197312,-0.8724 0.530088,-1.53373 1.195882,-2.20601 0.0027,-0.074 0.0064,-0.14811 0.0049,-0.22163 0.136172,-1.27817 0.09846,-1.65467 1.086132,-2.4873 -0.100297,-1.19933 0.29575,-1.5015 1.856511,-3.05772 0.128842,-0.12847 0.327691,-0.30463 0.513943,-0.38643 0.01969,-0.0439 0.07708,-0.0978 0.2195,-0.25183 0.168318,-0.31605 0.362958,-0.62674 0.59279,-0.91458 0.04623,-0.0579 0.101936,-0.0955 0.163382,-0.12075 0.107059,-0.1763 0.219063,-0.34859 0.335287,-0.51714 -0.265111,0.10992 -0.530129,0.22003 -0.795242,0.32995 -0.04461,0.10406 -0.17888,0.41573 -0.133901,0.31185 0.255088,-0.58924 0.310202,-1.31416 0.764341,-1.76807 0.08868,-0.0886 0.177057,-0.16891 0.265317,-0.2433 -0.198627,-0.22033 0.02915,-0.49412 0.488723,-0.77641 0.07899,-0.16536 0.179988,-0.31449 0.324279,-0.41876 0.943624,-0.68192 1.436674,-1.00948 1.856511,-1.12095 0.261351,-0.80492 0.146122,-0.67624 1.690997,-0.81051 0.116066,-0.0404 0.255858,-0.0647 0.433672,-0.0774 -0.82447,0.007 -1.976078,0.17983 -0.0334,-0.40171 0.188481,-0.0564 0.385471,-0.0747 0.582137,-0.0941 0.571052,-0.88042 0.798737,-0.97097 1.589419,-1.00515 0.746686,-0.7862 2.109203,-1.13675 3.149715,-1.02469 1.639887,0.2277 -0.09353,-0.0229 -0.533834,0.59137 -0.253879,0.3542 -0.433459,0.75135 -0.562955,1.11775 1.695676,-1.07512 4.407403,-2.4846 2.244363,-2.06181 -0.04131,0.0161 -0.08263,0.0322 -0.123957,0.0483 -0.0092,-0.007 -0.03842,-0.0175 -0.02736,-0.0199 0.05863,-0.0125 0.09857,-0.0181 0.151305,-0.0284 0.215822,-0.0839 0.431672,-0.1679 0.647487,-0.25182 0.0367,-0.008 0.826635,-0.20435 1.281483,-0.24045 0.538074,-0.27483 1.113696,-0.47686 1.676438,-0.69864 0.06447,-0.0254 0.13883,-10e-6 0.208132,0 0.523104,1e-4 1.046072,3e-5 1.569177,-6.9e-4 0.47212,6.9e-4 0.944363,0.006 1.416442,-3.6e-4 0.824161,-0.009 1.647723,-0.006 2.470969,0.0387 -0.108492,0.0537 -0.220283,0.10144 -0.325695,0.1609 -0.03945,0.0222 0.08452,-0.0327 0.126795,-0.049 0.0633,-0.0245 0.123145,-0.0614 0.19002,-0.0732 0.532473,-0.0935 1.005074,-0.16681 1.468658,-0.15735 0.284478,0.005 0.565622,0.043 0.854918,0.12538 0.275563,-0.0482 0.602709,-0.046 1.057007,-0.0437 0.518678,-6.9e-4 1.037357,-10e-4 1.556028,0.003 0.574181,-5.5e-4 1.149212,-0.0314 1.722614,0.008 0.338857,0.0234 0.343943,0.0594 0.231575,0.0931 0.367292,-0.0456 0.885998,-0.10611 1.802528,-0.20387 z m -30.376191,10.29482 c -0.03817,0.0717 -0.07191,0.14387 -0.107265,0.21595 0.05111,-0.0102 0.100509,-0.0135 0.144559,10e-4 0.141956,-0.25009 0.282598,-0.50153 0.424791,-0.75191 -0.199878,0.23976 -0.362297,0.42699 -0.462085,0.53489 z m -0.107265,0.21595 c -0.03651,0.007 -0.07388,0.019 -0.112235,0.0359 -0.01865,0.0416 -0.0056,0.0838 0.0025,0.18931 0.03398,-0.0753 0.07284,-0.14995 0.109748,-0.22518 z m -4.993082,26.81695 c 0.09389,0.0548 0.191065,0.10415 0.292667,0.14669 -0.04378,-0.063 -0.05995,-0.14031 -0.06322,-0.22412 -0.08876,0.0255 -0.166684,0.0513 -0.229445,0.0774 z m 0.292667,0.14669 c 0.0206,0.0297 0.04505,0.0571 0.07778,0.0806 0.551178,0.3963 1.225776,0.58766 1.901619,0.77216 0.461537,0.0436 0.74625,0.0247 0.536672,-0.0931 -0.750283,-0.42145 -1.733343,-0.43194 -2.516074,-0.75972 z m 1.979402,0.85278 c -0.347099,-0.0328 -0.790258,-0.10114 -1.215416,-0.19393 0.08503,0.31446 0.184877,0.72014 0.31291,1.18381 0.789084,0.3033 1.946429,0.44433 2.649268,0.39921 0.0025,-0.0204 0.0046,-0.0395 0.0071,-0.06 0.0011,-0.0531 0.0035,-0.10698 0.0014,-0.1584 -7.56e-4,-0.0193 0.01949,-0.0996 0.0444,-0.19287 0.02033,-0.0974 0.03194,-0.19461 0.03623,-0.29196 -0.542496,-0.33655 -1.188893,-0.50922 -1.835913,-0.68584 z m 36.617359,-36.12935 c -0.0863,-0.001 -0.10869,0.0311 -0.0228,0.11117 0.16583,0.15444 0.34526,0.2913 0.53277,0.41733 0.0915,-0.0566 0.71734,0.12113 0.88545,0.30048 0.0247,0.0263 0.0473,0.0543 0.0703,0.082 -0.0463,-0.10638 -0.10104,-0.2084 -0.16907,-0.30368 -0.20475,-0.28682 -1.038,-0.60247 -1.29675,-0.60735 z m 1.46582,0.91103 c 0.0299,0.0688 0.0554,0.1401 0.0785,0.21239 0.0366,0.0195 0.0729,0.0391 0.1094,0.0586 -0.0575,-0.0946 -0.11799,-0.18667 -0.18789,-0.271 z m 0.0785,0.21239 c -0.35278,-0.18786 -0.70633,-0.3745 -1.03427,-0.59492 -0.0194,0.012 -0.0163,0.0339 0.022,0.0693 0.22808,0.21064 0.48995,0.38087 0.76079,0.54022 0.0884,0.0329 0.18828,0.0722 0.28805,0.11153 -0.0115,-0.0424 -0.0233,-0.0846 -0.0366,-0.12609 z m 0.0366,0.12609 c 0.005,0.0208 0.01,0.0423 0.0153,0.0632 0.0639,0.0357 0.12766,0.0718 0.19145,0.10762 -0.0195,-0.0384 -0.0391,-0.0768 -0.0597,-0.11437 -0.05,-0.0194 -0.095,-0.0359 -0.14705,-0.0565 z m 0.0153,0.0632 c -0.10204,-0.057 -0.20285,-0.11563 -0.30331,-0.17474 -0.22076,-0.0822 -0.36971,-0.1238 -0.25006,-0.0124 0.23455,0.2183 0.44383,0.40645 0.63649,0.57467 -0.0238,-0.1312 -0.0511,-0.26044 -0.0831,-0.3875 z m 0.2671,0.0423 c 0.0444,0.065 0.0762,0.11062 0.12395,0.18043 0.0434,0.0252 0.0875,0.0498 0.13035,0.0756 -0.0319,-0.0671 -0.0632,-0.13473 -0.098,-0.19961 -0.0391,-0.0115 -0.10355,-0.0373 -0.15628,-0.0565 z m 6.23655,1.72155 c 0.31832,0.71241 0.6303,1.4284 1.05631,2.07921 0.14245,0.2176 0.0758,-0.54373 -0.0337,-0.77962 -0.21305,-0.45886 -0.56543,-0.84206 -0.89646,-1.22465 -0.0271,-0.0313 -0.0719,-0.0552 -0.1261,-0.0749 z m -38.144615,0.12147 c -0.155432,0.122 -0.295177,0.28338 -0.418045,0.45569 0.09073,-0.0331 0.183237,-0.0643 0.275262,-0.0963 0.05461,-0.13039 0.103792,-0.25305 0.142783,-0.35944 z m 33.590185,0.23016 c 0.0155,0.0625 0.03,0.12267 0.0504,0.19677 0.0311,0.0359 0.0615,0.0725 0.0923,0.10868 -0.0145,-0.0979 -0.0288,-0.19583 -0.0433,-0.29373 -0.0331,-0.004 -0.0663,-0.008 -0.0995,-0.0118 z m 0.19392,0.0234 c 0.0752,0.1605 0.14969,0.32129 0.22447,0.48197 0.0316,-0.0504 0.0761,-0.054 0.13782,0.0195 0.20809,0.24798 0.35925,0.53041 0.48481,0.82827 -0.0183,-0.12123 -0.0518,-0.26335 -0.0792,-0.33955 -0.25393,-0.7073 -0.2739,-0.67729 -0.66417,-0.9778 -0.0345,-0.005 -0.0692,-0.008 -0.10372,-0.0124 z M 80.2962,121.0393 c -0.1838,0.001 -0.319956,0.0374 -0.214172,0.0923 0.05773,0.03 0.108684,0.0545 0.16338,0.082 0.05581,-0.055 0.109234,-0.11227 0.161965,-0.17013 -0.03767,-0.003 -0.07566,-0.005 -0.111173,-0.004 z m 30.8674,0.73699 c 0.10659,0.21451 0.14737,0.4354 0.20458,0.76398 0.2731,0.15601 0.54913,0.31515 0.73095,0.38928 0.15961,0.19319 0.38148,0.44574 0.59102,0.70574 0.0478,0.0175 0.0948,0.0366 0.14242,0.0547 0.0658,-0.36417 -0.7559,-1.1118 -1.66897,-1.9137 z m -0.2298,0.32002 c 0.10567,0.0696 0.14808,0.1667 0.17119,0.2955 0.0725,0.04 0.14982,0.0841 0.2266,0.12786 -0.14387,-0.3089 -0.20828,-0.37914 -0.39779,-0.42336 z m -10.2387,0.011 c -10e-4,0.003 -0.002,0.005 -0.003,0.008 0.0136,0.004 0.0267,0.007 0.0405,0.0121 0.0179,0.006 0.0511,0.0161 0.0703,0.0224 0.003,-0.008 0.005,-0.0191 0.009,-0.028 -0.0386,-0.004 -0.0773,-0.009 -0.1165,-0.0146 z m 10.69013,0.52851 c 0.0203,0.1156 0.0484,0.25761 0.0774,0.40277 0.0462,0.0239 0.0913,0.0487 0.13782,0.0725 -0.0936,-0.20325 -0.15762,-0.34801 -0.21524,-0.47523 z m 0.21523,0.47523 c 0.004,0.008 0.005,0.0111 0.009,0.0195 0.0251,0.0544 0.0452,0.13936 0.0615,0.23229 0.1959,0.0281 0.39011,0.0722 0.58214,0.12822 -0.19536,-0.14734 -0.42429,-0.26369 -0.65247,-0.38004 z m 0.0703,0.25183 c -0.048,-0.007 -0.0959,-0.0144 -0.1442,-0.0192 0.0355,0.15713 0.0797,0.33456 0.13071,0.52638 0.0195,0.003 0.0378,0.005 0.0568,0.007 10e-4,-0.12752 -0.0119,-0.33525 -0.0433,-0.51466 z m -0.1442,-0.0192 c -0.0257,-0.11404 -0.0444,-0.20727 -0.0639,-0.3051 -0.102,-0.0529 -0.20284,-0.10709 -0.29871,-0.16515 0.019,0.13412 0.0465,0.28266 0.10017,0.45569 0.005,2e-5 0.0115,-6.8e-4 0.016,-6.8e-4 0.0824,0.001 0.16469,0.007 0.2465,0.0152 z m -35.042854,0.092 c -1.1e-4,-6.9e-4 -0.01,0.0135 -0.011,0.0142 0.0014,0.001 0.0021,0.002 0.0034,0.003 0.0034,-0.007 0.008,-0.016 0.0078,-0.0174 z m -3.931816,0.55407 c 0.09369,0.018 0.185682,0.032 0.271001,0.0309 0.19883,-0.003 0.01109,-0.0222 -0.271001,-0.0309 z m -1.876402,1.41112 c -0.03141,0.008 -0.06459,0.0167 -0.09767,0.0252 0.0011,0.0384 3.63e-4,0.085 -0.0018,0.13888 0.03292,-0.0549 0.06709,-0.10869 0.09945,-0.16409 z m -0.134257,0.0349 c -0.168503,0.0445 -0.339595,0.0989 -0.409519,0.19605 -0.315549,0.43855 -0.40536,1.00159 -0.608064,1.5024 0.02129,0.17873 0.0396,0.32141 0.05683,0.44362 0.08876,-0.0494 0.187142,-0.0671 0.29018,-0.0685 0.122054,-0.49096 0.312393,-1.25754 0.670575,-2.07352 z m 44.403559,0.15378 c 0.13116,0.15732 0.25392,0.3224 0.37081,0.49299 0.0326,0.006 0.065,0.0143 0.0973,0.0217 -0.0758,-0.15548 -0.15154,-0.31087 -0.22731,-0.46636 -0.0786,-0.0193 -0.1597,-0.0341 -0.24081,-0.0483 z m 1.98544,1.5944 c 0.30265,0.55454 0.60185,1.11175 1.03427,1.5649 0.32467,0.34023 -0.12655,-1.04123 -0.50826,-1.31593 -0.15903,-0.11445 -0.33772,-0.19102 -0.52601,-0.24897 z m -47.098997,0.47984 c -0.08303,0.006 -0.160456,0.0149 -0.232642,0.0288 0.07543,0.4794 0.129336,0.37439 0.232642,-0.0288 z m 2.372228,1.35393 c -0.128566,0.0282 -0.257138,0.0564 -0.414846,0.0945 -0.188087,0.0454 0.163762,0.1017 0.488369,0.0728 -0.03865,-0.0549 -0.062,-0.11082 -0.07352,-0.16729 z m 24.187218,0.60772 c -0.0034,-0.002 -0.01478,5.4e-4 -0.03622,0.009 -0.03437,0.0133 -0.06784,0.0288 -0.101935,0.0426 0.01127,0.0107 0.02241,0.0213 0.0334,0.0323 0.06385,-0.0426 0.113048,-0.0787 0.104773,-0.0838 z m 15.279381,0.44539 c -0.0255,0.005 -0.0248,0.0293 0.003,0.0728 l 0.54413,0.14775 c -0.25338,-0.13031 -0.48153,-0.23408 -0.54768,-0.22056 z m -42.792123,0.15769 c -0.128982,0.0363 -0.261751,0.069 -0.372936,0.12289 0.124346,-0.041 0.248884,-0.0814 0.372936,-0.12289 z m 43.405863,0.0956 c 0.25834,0.15148 0.51421,0.30747 0.77642,0.45214 0.30786,0.16986 -0.27008,-0.18641 -0.77642,-0.45214 z m -41.650933,2.29231 c -0.286651,0.0427 -0.573968,0.0815 -0.857753,0.13533 0.258574,-0.0165 0.591524,0.13286 0.775708,-0.0494 0.0289,-0.0286 0.05393,-0.0573 0.08204,-0.086 z m 19.080835,0.86735 c -0.01835,-0.0429 -0.222145,1.0981 -0.311846,1.51057 0.01388,0.0193 0.02701,0.0392 0.04083,0.0586 0.08969,-0.35076 0.200708,-0.79164 0.266738,-1.47256 0.0062,-0.06 0.0069,-0.0905 0.0041,-0.0966 z m 29.131648,0.49973 c 0.51962,0.48735 0.89258,0.96571 1.1593,1.36956 -0.11597,-0.38007 -0.0837,-0.85891 -0.40384,-1.06553 -0.22996,-0.14839 -0.48763,-0.23705 -0.75546,-0.30403 z m -3.37063,11.04424 c -0.002,3.6e-4 -0.005,0.005 -0.0107,0.016 -0.0293,0.0602 -0.0528,0.12292 -0.0778,0.18504 0.0133,-0.003 0.0265,-0.006 0.0398,-0.009 0.0314,-0.0878 0.0579,-0.19413 0.0487,-0.19215 z m -45.18886,3.02789 c 3.64e-4,0.0244 -1.26e-4,0.0488 3.64e-4,0.0732 0.03221,0.01 0.05828,0.0207 0.08879,0.0309 -0.02911,-0.035 -0.05947,-0.0693 -0.08915,-0.10407 z m 0.525306,0.6933 c -0.06759,0.0394 -0.165567,0.0784 -0.280235,0.11721 0.05246,0.05 0.101784,0.0958 0.150596,0.13923 0.04593,-0.0812 0.09065,-0.16359 0.138519,-0.24223 -0.003,-0.005 -0.0058,-0.009 -0.0089,-0.0142 z m -1.031789,1.94211 c -0.02843,0.0836 -0.05744,0.17469 -0.08773,0.28165 -0.111482,0.39366 -0.18677,0.64647 -0.245782,0.84071 0.0902,-0.26714 0.232003,-0.65509 0.419464,-1.11206 -0.02864,-0.003 -0.05725,-0.007 -0.08595,-0.0103 z m -3.752093,0.19463 c -0.0099,-0.01 -0.01391,0.14701 -0.0089,0.33885 0.01647,-0.0981 0.02737,-0.19406 0.01882,-0.28131 -0.0036,-0.0367 -0.0069,-0.0545 -0.0099,-0.0575 z m 47.489336,5.66437 c -0.0226,0.0354 -0.045,0.0709 -0.0682,0.10585 0.1249,-0.0147 0.24238,-0.0276 0.38501,-0.0465 0.14696,-0.0195 -0.0726,-0.0393 -0.31681,-0.0593 z m -4.94833,0.84745 c -0.15795,0.0258 -0.31962,0.0346 -0.48198,0.0366 0.0604,0.20055 0.11998,0.40132 0.17511,0.60309 0.0945,-0.21543 0.19882,-0.42814 0.30687,-0.63968 z m -21.888512,0.10265 c 0.0021,0.0319 0.0055,0.0601 0.0071,0.0934 0.0589,0.008 0.116519,0.0203 0.175099,0.0295 0.163078,-0.0592 0.07282,-0.0934 -0.182206,-0.12289 z m 8.373306,0.86309 c 0.0041,0.0155 0.0075,0.0314 0.0121,0.0469 0.04949,0.1687 0.0589,0.12625 0.0387,-0.0469 -0.01691,-1e-5 -0.03388,0 -0.05079,0 z m 9.312746,0.27703 c -0.068,0.037 -0.13543,0.0726 -0.20494,0.1133 -0.0926,0.0542 -0.01,0.037 0.11544,0.003 0.0303,-0.0395 0.0588,-0.0757 0.0895,-0.11578 z m -0.62156,0.78814 c -0.1054,0.0422 -0.20977,0.0865 -0.31255,0.13497 -0.0883,0.0417 -0.18931,0.11115 -0.29374,0.19179 0.0214,0.0718 0.0425,0.14372 0.0636,0.2156 0.0137,-0.0166 0.0274,-0.0348 0.0412,-0.0487 0.0785,-0.0785 0.16342,-0.14751 0.25111,-0.21275 0.0802,-0.085 0.1633,-0.17718 0.2504,-0.28094 z m -0.57041,0.57575 c -0.094,0.0686 -0.17935,0.10943 -0.25395,0.11685 0.0585,10e-4 0.1102,0.003 0.17439,0.003 0.026,-0.0443 0.0526,-0.0842 0.0796,-0.1204 z m -0.89328,0.0707 c 0.009,0.08 0.0208,0.14968 0.0323,0.22128 0.0794,-0.006 0.14725,-0.0104 0.24259,-0.0177 0.0526,-0.0526 0.10867,-0.10649 0.16622,-0.16125 -0.18457,-0.008 -0.32351,-0.0233 -0.44113,-0.0423 z m 0.44114,0.0423 c 0.0454,0.002 0.10231,0.002 0.15201,0.003 -0.0393,-0.004 -0.0758,-0.0168 -0.10797,-0.0441 -0.0146,0.0137 -0.0296,0.0272 -0.0441,0.0408 z m 0.35056,0.0472 c -0.0705,0.007 -0.0921,0.0307 -0.12432,0.082 0.0228,-0.002 0.0615,-0.005 0.0853,-0.008 0.0128,-0.0255 0.0259,-0.0504 0.039,-0.0742 z m -21.606504,0.23193 c 0.0078,0.0845 0.01753,0.16262 0.0277,0.2401 0.06358,0.0276 0.126142,0.0571 0.185753,0.0927 0.07189,0.0429 0.147386,0.13094 0.219856,0.23335 0.04983,4e-5 0.09969,-4e-5 0.149532,0 0.02577,-0.0625 0.0523,-0.13077 0.07991,-0.21062 0.05828,0.0405 0.10797,0.0977 0.174749,0.12182 0.01718,0.006 0.0354,-0.0423 0.01952,-0.0515 -0.191051,-0.1104 -0.403622,-0.17952 -0.598475,-0.28307 -0.08882,-0.0472 -0.172597,-0.0953 -0.258566,-0.14278 z m 0.433314,0.56615 c -0.06309,-4e-5 -0.12621,4e-5 -0.189305,0 0.05052,0.079 0.101474,0.15796 0.146685,0.23691 0.01938,0.0109 0.0354,0.0231 0.05292,0.0348 0.02481,-0.0357 0.05045,-0.0787 0.07743,-0.13319 -0.02852,-0.0478 -0.05739,-0.0957 -0.08773,-0.13851 z m -0.04261,0.23691 c -0.07736,-0.0433 -0.171539,-0.0774 -0.270642,-0.10656 0.07332,0.23796 0.172178,0.33665 0.303674,0.16907 -0.01168,-0.021 -0.02096,-0.0414 -0.03306,-0.0625 z m -0.146686,-0.23691 c -0.06756,-0.10566 -0.137627,-0.21075 -0.21488,-0.31433 0.01526,0.11468 0.03258,0.22197 0.05327,0.31433 0.05388,5e-5 0.107736,-2e-5 0.161601,0 z m 32.379026,0.22163 c -0.002,3.7e-4 -0.0139,0.007 -0.0373,0.0238 -0.0815,0.0568 -0.16342,0.11397 -0.24579,0.17013 0.15474,-0.095 0.29142,-0.19523 0.28308,-0.19392 z m -34.785353,3.22288 c -0.132575,0.0939 -0.274024,0.17538 -0.423727,0.244 0.03306,0.0394 0.06756,0.0778 0.104066,0.11473 0.347641,0.35097 1.888879,0.37531 1.478603,0.10016 -0.345064,-0.23142 -0.747175,-0.35467 -1.158942,-0.45889 z" />
  </g>
</svg>
